{
  "accessors": [
    {
      "bufferView": 2,
      "componentType": 5126,
      "count": 808,
      "max": [
        20.249546051025391,
        29.90771484375,
        3.536046028137207
      ],
      "min": [
        -19.757339477539062,
        -30.09228515625,
        -5.5788612365722656
      ],
      "type": "VEC3"
    },
    {
      "bufferView": 2,
      "byteOffset": 9696,
      "componentType": 5126,
      "count": 808,
      "max": [
        1,
        1,
        0.99985826015472412
      ],
      "min": [
        -1,
        -1,
        -0.99985826015472412
      ],
      "type": "VEC3"
    },
    {
      "bufferView": 3,
      "componentType": 5126,
      "count": 808,
      "max": [
        1,
        0.88554054498672485,
        1,
        1
      ],
      "min": [
        -1,
        -0.88554078340530396,
        -1,
        1
      ],
      "type": "VEC4"
    },
    {
      "bufferView": 1,
      "componentType": 5126,
      "count": 808,
      "max": [
        1.0394430160522461,
        1.0393530130386353
      ],
      "min": [
        -0.086277998983860016,
        0.09882800281047821
      ],
      "type": "VEC2"
    },
    {
      "bufferView": 0,
      "componentType": 5125,
      "count": 3540,
      "max": [
        807
      ],
      "min": [
        0
      ],
      "type": "SCALAR"
    },
    {
      "bufferView": 2,
      "byteOffset": 19392,
      "componentType": 5126,
      "count": 952,
      "max": [
        20.249546051025391,
        28.546545028686523,
        9.8026466369628906
      ],
      "min": [
        -19.757339477539062,
        -28.731115341186523,
        -8.9548139572143555
      ],
      "type": "VEC3"
    },
    {
      "bufferView": 2,
      "byteOffset": 30816,
      "componentType": 5126,
      "count": 952,
      "max": [
        1,
        0.61883503198623657,
        0.99999946355819702
      ],
      "min": [
        -1,
        -0.61939197778701782,
        -0.99999600648880005
      ],
      "type": "VEC3"
    },
    {
      "bufferView": 3,
      "byteOffset": 12928,
      "componentType": 5126,
      "count": 952,
      "max": [
        1,
        0.18388450145721436,
        1,
        1
      ],
      "min": [
        -1,
        -0.18245892226696014,
        -1,
        1
      ],
      "type": "VEC4"
    },
    {
      "bufferView": 1,
      "byteOffset": 6464,
      "componentType": 5126,
      "count": 952,
      "max": [
        1.0394430160522461,
        1.01801598072052
      ],
      "min": [
        -0.0394430011510849,
        0.12016499787569046
      ],
      "type": "VEC2"
    },
    {
      "bufferView": 0,
      "byteOffset": 14160,
      "componentType": 5125,
      "count": 4908,
      "max": [
        951
      ],
      "min": [
        0
      ],
      "type": "SCALAR"
    }
  ],
  "asset": {
    "extras": {
      "author": "Nour.Aljundi (https://sketchfab.com/Nour.Aljundi)",
      "license": "CC-BY-4.0 (http://creativecommons.org/licenses/by/4.0/)",
      "source": "https://sketchfab.com/models/615a0d1bd29d4d8ea05e6daad9741c12",
      "title": "Chips Lays"
    },
    "generator": "Sketchfab-3.20.7",
    "version": "2.0"
  },
  "bufferViews": [
    {
      "buffer": 0,
      "byteLength": 33792,
      "byteOffset": 0,
      "name": "floatBufferViews",
      "target": 34963
    },
    {
      "buffer": 0,
      "byteLength": 14080,
      "byteOffset": 33792,
      "byteStride": 8,
      "name": "floatBufferViews",
      "target": 34962
    },
    {
      "buffer": 0,
      "byteLength": 42240,
      "byteOffset": 47872,
      "byteStride": 12,
      "name": "floatBufferViews",
      "target": 34962
    },
    {
      "buffer": 0,
      "byteLength": 28160,
      "byteOffset": 90112,
      "byteStride": 16,
      "name": "floatBufferViews",
      "target": 34962
    }
  ],
  "buffers": [
    {
      "byteLength": 118272,
      "uri": "scene.bin"
    }
  ],
  "images": [
    {
      "uri": "textures/02___Default_baseColor.png"
    },
    {
      "uri": "textures/Material__989_baseColor.png"
    }
  ],
  "materials": [
    {
      "doubleSided": true,
      "emissiveFactor": [
        0,
        0,
        0
      ],
      "name": "02___Default",
      "pbrMetallicRoughness": {
        "baseColorFactor": [
          1,
          1,
          1,
          1
        ],
        "baseColorTexture": {
          "index": 0,
          "texCoord": 0
        },
        "metallicFactor": 0,
        "roughnessFactor": 0.89297135959999996
      }
    },
    {
      "doubleSided": true,
      "emissiveFactor": [
        0,
        0,
        0
      ],
      "name": "Material__989",
      "pbrMetallicRoughness": {
        "baseColorFactor": [
          1,
          1,
          1,
          1
        ],
        "baseColorTexture": {
          "index": 1,
          "texCoord": 0
        },
        "metallicFactor": 0,
        "roughnessFactor": 0.89297135959999996
      }
    }
  ],
  "meshes": [
    {
      "name": "Box001_02___Default_0",
      "primitives": [
        {
          "attributes": {
            "NORMAL": 1,
            "POSITION": 0,
            "TANGENT": 2,
            "TEXCOORD_0": 3
          },
          "indices": 4,
          "material": 0,
          "mode": 4
        }
      ]
    },
    {
      "name": "Box001_Material__989_0",
      "primitives": [
        {
          "attributes": {
            "NORMAL": 6,
            "POSITION": 5,
            "TANGENT": 7,
            "TEXCOORD_0": 8
          },
          "indices": 9,
          "material": 1,
          "mode": 4
        }
      ]
    }
  ],
  "nodes": [
    {
      "children": [
        1
      ],
      "name": "RootNode (gltf orientation matrix)",
      "rotation": [
        -0.70710678118654746,
        -0,
        -0,
        0.70710678118654757
      ]
    },
    {
      "children": [
        2
      ],
      "name": "RootNode (model correction matrix)"
    },
    {
      "children": [
        3
      ],
      "matrix": [
        1,
        0,
        0,
        0,
        0,
        0,
        1,
        0,
        0,
        -1,
        0,
        0,
        0,
        0,
        0,
        1
      ],
      "name": "10959e8efe094c71a2a8a6e3c3a60cc5.fbx"
    },
    {
      "children": [
        4
      ],
      "name": "RootNode"
    },
    {
      "children": [
        5,
        6
      ],
      "matrix": [
        4.1927499771117844,
        -3.66541854646127e-07,
        -3.6654185464612716e-07,
        0,
        -3.6654187066817903e-07,
        -4.1927499771117969,
        -1.8327089482288389e-07,
        0,
        -3.665418386240745e-07,
        1.8327092686699142e-07,
        -4.1927499771117969,
        0,
        0,
        0,
        0,
        1
      ],
      "name": "Box001"
    },
    {
      "mesh": 0,
      "name": "Box001_02___Default_0"
    },
    {
      "mesh": 1,
      "name": "Box001_Material__989_0"
    }
  ],
  "samplers": [
    {
      "magFilter": 9729,
      "minFilter": 9987,
      "wrapS": 10497,
      "wrapT": 10497
    }
  ],
  "scene": 0,
  "scenes": [
    {
      "name": "OSG_Scene",
      "nodes": [
        0
      ]
    }
  ],
  "textures": [
    {
      "sampler": 0,
      "source": 0
    },
    {
      "sampler": 0,
      "source": 1
    }
  ]
}

